PathFileType	4	(X/Y/Z)	..\data\2015032\dynamic\2015032_C4_03.trc
DataRate	CameraRate	NumFrames	NumMarkers	Units	OrigDataRate	OrigDataStartFrame	OrigNumFrames
100.000000	100.000000	4	48	mm	100.000000	177	203
Frame#	Time	L_IAS			L_IPS			R_IPS			R_IAS			L_FTC			L_FLE			L_FAX			L_TTC			L_FAL			L_FCC			L_FM1			L_FM2			L_FM5			R_FTC			R_FLE			R_FAX			R_TTC			R_FAL			R_FCC			R_FM1			R_FM2			R_FM5			CV7			TV10			SXS			SJN			L_SIA			L_SRS			L_SAA			L_SAE			L_HLE			L_HME			L_UOA			L_RSP			L_UHE			L_HM2			L_HM5			R_SIA			R_SRS			R_SAA			R_SAE			R_HLE			R_HME			R_UOA			R_RSP			R_UHE			R_HM2			R_HM5			
		X1	Y1	Z1	X2	Y2	Z2	X3	Y3	Z3	X4	Y4	Z4	X5	Y5	Z5	X6	Y6	Z6	X7	Y7	Z7	X8	Y8	Z8	X9	Y9	Z9	X10	Y10	Z10	X11	Y11	Z11	X12	Y12	Z12	X13	Y13	Z13	X14	Y14	Z14	X15	Y15	Z15	X16	Y16	Z16	X17	Y17	Z17	X18	Y18	Z18	X19	Y19	Z19	X20	Y20	Z20	X21	Y21	Z21	X22	Y22	Z22	X23	Y23	Z23	X24	Y24	Z24	X25	Y25	Z25	X26	Y26	Z26	X27	Y27	Z27	X28	Y28	Z28	X29	Y29	Z29	X30	Y30	Z30	X31	Y31	Z31	X32	Y32	Z32	X33	Y33	Z33	X34	Y34	Z34	X35	Y35	Z35	X36	Y36	Z36	X37	Y37	Z37	X38	Y38	Z38	X39	Y39	Z39	X40	Y40	Z40	X41	Y41	Z41	X42	Y42	Z42	X43	Y43	Z43	X44	Y44	Z44	X45	Y45	Z45	X46	Y46	Z46	X47	Y47	Z47	X48	Y48	Z48	

178	1.77	1211.835815429688	943.768493652344	-331.0280456542969	1064.568359375	954.434509277344	-253.8288879394532	1076.116577148438	957.0642089843752	-145.285400390625	1238.654174804688	946.0843505859377	-98.99243927001956	1151.257568359375	869.2879028320315	-378.4051208496094	1283.7939453125	476.2576904296876	-345.2262573242188	1262.683837890625	423.4566650390626	-352.8036499023438	1324.677612304688	395.1838989257814	-312.6890869140626	1122.019165039063	123.8507537841797	-331.0641479492188	1075.828247070313	86.1803436279297	-282.2929077148438	1261.408935546875	42.92820739746094	-311.2255554199219	1246.081787109375	56.64818572998048	-362.9552001953126	1198.32421875	61.11553955078126	-390.7354431152345	1149.06884765625	854.977233886719	-41.50133132934571	1156.510131835938	440.2742004394532	-83.43564605712892	1147.02880859375	385.2699279785157	-87.9076385498047	1196.280639648438	379.7106323242188	-151.3365783691407	1075.51904296875	59.04668426513673	-163.4900970458985	1038.658447265625	21.88030433654786	-221.6847229003907	1235.254638671875	18.54024124145508	-204.7393341064454	1227.447387695313	31.31600570678712	-146.244873046875	1169.395874023438	21.36413002014161	-104.7658767700196	1094.825439453125	1441.55859375	-198.3861083984376	1035.294189453125	1214.616943359375	-189.3363647460938	1212.906127929688	1181.936157226563	-214.5513458251954	1190.3095703125	1349.625244140625	-207.3883514404297	1001.394897460938	1245.444580078125	-299.0945434570313	1036.18115234375	1368.771728515625	-294.9202880859376	1099.103759765625	1378.12060546875	-388.099578857422	1144.923828125	1375.162231445313	-399.1437072753907	1098.591064453125	1069.340942382813	-441.209930419922	1066.705688476563	1059.15185546875	-372.8598632812501	1060.667114257813	1039.361450195313	-414.8342285156251	1180.066772460938	828.008728027344	-412.2925720214845	1128.973388671875	838.2529907226565	-468.6229858398439	1193.474243164063	744.7423095703126	-414.8191528320314	1111.601684570313	763.8374633789064	-472.9482727050782	1031.553833007813	1249.296752929688	-71.04272460937501	1057.890258789063	1366.542846679688	-91.69386291503908	1133.462768554688	1374.1572265625	-9.50402355194092	1179.796630859375	1374.488891601563	-2.164286375045777	1171.060424804688	1061.56884765625	34.42446517944337	1133.910278320313	1053.815673828125	-30.82107543945313	1136.590087890625	1030.704956054688	13.67551898956299	1293.505126953125	846.501159667969	-18.56609916687012	1250.086547851563	837.7692871093752	41.96560287475587	1332.266845703125	764.8618774414064	-14.83775806427002	1252.82275390625	763.4563598632814	48.54585266113283	
179	1.78	1218.690551757813	943.8150024414065	-330.4370727539063	1071.146362304688	954.4273681640627	-253.5362854003907	1082.667236328125	956.8198852539065	-144.9939727783203	1245.229614257813	945.4478149414065	-98.35989379882815	1158.120849609375	869.5665283203127	-378.3727416992188	1292.839965820313	476.456512451172	-345.3767089843751	1273.49072265625	422.5451660156251	-352.8982849121094	1336.377807617188	396.8438415527345	-312.5696411132813	1146.5986328125	116.572135925293	-331.0328063964844	1102.000366210938	77.15512847900392	-282.3034362792969	1289.25146484375	41.76486968994141	-310.9296875000001	1273.249755859375	54.90621185302736	-362.7787780761719	1225.406982421875	57.27265930175783	-390.5036621093751	1155.260498046875	854.3392333984377	-41.36238479614259	1158.498168945313	440.0174560546876	-82.92231750488283	1148.619750976563	385.0219116210939	-87.46670532226564	1197.822998046875	379.1538085937501	-150.8455810546875	1075.607055664063	59.16191482543947	-163.4474029541016	1038.772216796875	21.97213745117188	-221.7426452636719	1235.26708984375	18.52616119384766	-204.7262420654297	1227.486450195313	31.25832176208497	-146.1206665039063	1169.333618164063	21.19848823547364	-104.5843276977539	1101.944580078125	1441.372436523438	-197.9318847656251	1042.237060546875	1214.533569335938	-188.2571105957032	1219.572387695313	1181.52783203125	-214.2066040039063	1197.271728515625	1349.316650390625	-207.3192138671876	1007.718994140625	1245.006591796875	-297.4366455078126	1042.604370117188	1368.395141601563	-293.8088684082032	1104.615844726563	1377.478393554688	-387.453582763672	1150.42822265625	1374.444458007813	-398.9351196289064	1102.22216796875	1068.946044921875	-440.5744018554689	1071.040405273438	1058.992797851563	-372.1135559082032	1064.626220703125	1039.129638671875	-413.7762756347657	1183.1748046875	827.2404785156252	-412.7075805664064	1131.44873046875	837.743835449219	-468.3934631347657	1196.391479492188	744.0308837890626	-415.5051269531251	1113.865966796875	763.3578491210939	-472.5821533203126	1039.262817382813	1249.401977539063	-69.77031707763673	1065.571166992188	1366.565795898438	-90.80332946777345	1141.635009765625	1374.343872070313	-9.20952892303467	1188.102294921875	1374.473876953125	-1.978101134300232	1180.680419921875	1061.7119140625	35.41920852661134	1142.922241210938	1053.71484375	-29.63983535766602	1146.196899414063	1030.545654296875	14.93074989318848	1304.20458984375	847.6041259765627	-18.87740707397461	1261.33349609375	838.437683105469	42.08280181884766	1343.72216796875	766.2965698242189	-15.40017604827881	1264.833740234375	764.1476440429689	48.64914703369142	
180	1.79	1225.608642578125	943.7557373046877	-329.8731689453126	1077.704711914063	954.3620605468752	-253.2515563964844	1089.24951171875	956.5083007812502	-144.7261199951172	1251.8369140625	944.7439575195315	-97.73046875000003	1165.01220703125	869.7490844726565	-378.3816223144532	1301.396606445313	476.3570556640626	-345.6317138671876	1283.927490234375	421.3928222656251	-353.0549011230469	1347.615234375	398.336395263672	-312.5046997070313	1171.366943359375	109.6412734985352	-330.7601318359376	1128.4599609375	68.5856399536133	-282.0145568847657	1317.041870117188	41.01962661743165	-310.3237304687501	1300.429321289063	53.55654525756837	-362.3110656738282	1252.586791992188	53.85659790039064	-389.990447998047	1161.322143554688	853.7189941406252	-41.17756271362305	1160.579223632813	439.7562561035157	-82.43688201904298	1150.294067382813	384.7735595703126	-87.0499954223633	1199.460205078125	378.5933532714844	-150.3719482421875	1075.700439453125	59.28839111328126	-163.39111328125	1038.884399414063	22.07115745544434	-221.7859497070313	1235.273681640625	18.4956169128418	-204.7222137451172	1227.533081054688	31.19159889221192	-146.0098114013672	1169.269775390625	21.0239315032959	-104.4009475708008	1109.054321289063	1441.106201171875	-197.5210571289063	1049.197998046875	1214.35888671875	-187.2378845214844	1226.29345703125	1181.086547851563	-213.9166564941407	1204.239624023438	1348.935302734375	-207.2727813720704	1014.11376953125	1244.497314453125	-295.8708496093751	1049.0498046875	1367.94873046875	-292.7705383300782	1110.179931640625	1376.788330078125	-386.8548583984376	1155.997802734375	1373.683471679688	-398.7474975585939	1105.932495117188	1068.498291015625	-439.9046936035157	1075.42724609375	1058.7734375	-371.3239135742188	1068.64892578125	1038.822875976563	-412.6697692871095	1186.432739257813	826.4567871093752	-413.0096740722657	1134.074340820313	837.185485839844	-468.0527954101564	1199.486206054688	743.2988891601564	-416.0616760253907	1116.307006835938	762.8187866210939	-472.0690002441407	1046.95458984375	1249.420654296875	-68.58235168457033	1073.220458984375	1366.504028320313	-89.9789505004883	1149.786254882813	1374.42333984375	-8.941118240356447	1196.355712890625	1374.398193359375	-1.86997389793396	1190.263916015625	1061.783081054688	36.35648345947266	1151.936279296875	1053.529052734375	-28.50875473022462	1155.745971679688	1030.333740234375	16.11488151550293	1314.768310546875	848.6170043945315	-19.30661392211914	1272.423706054688	839.0108032226565	42.10756301879884	1354.96923828125	767.6131591796876	-16.10337257385254	1276.685668945313	764.7578735351564	48.6440773010254	
181	1.8	1232.5908203125	943.5988769531252	-329.3393249511719	1084.252807617188	954.2386474609377	-252.972640991211	1095.871826171875	956.1311035156252	-144.4776306152344	1258.469360351563	943.969421386719	-97.10462188720706	1171.92919921875	869.8411865234377	-378.4258117675782	1309.470581054688	475.9632568359376	-345.9889526367188	1294.001342773438	420.0205688476564	-353.2727050781251	1358.376953125	399.6636962890626	-312.4821777343751	1196.258056640625	103.146484375	-330.2634582519532	1155.110717773438	60.56772613525392	-281.4534606933594	1344.704956054688	40.77109909057618	-309.3715820312501	1327.5615234375	52.66470336914064	-361.5185546875001	1279.813598632813	50.92750167846681	-389.1698608398439	1167.301147460938	853.1055297851565	-40.94880676269532	1162.761962890625	439.4876098632814	-81.98199462890626	1152.062255859375	384.5240783691407	-86.66157531738283	1201.199462890625	378.0271301269532	-149.9203643798828	1075.798461914063	59.42407226562501	-163.3257446289063	1038.98828125	22.18222236633301	-221.8128814697266	1235.275024414063	18.44847297668457	-204.7280883789063	1227.58740234375	31.11078834533692	-145.9161529541016	1169.203979492188	20.84153938293457	-104.2178497314453	1116.147583007813	1440.760986328125	-197.1562194824219	1056.175415039063	1214.090942382813	-186.2837982177735	1233.0712890625	1180.614501953125	-213.6790161132813	1211.211669921875	1348.486328125	-207.2512359619141	1020.577758789063	1243.918701171875	-294.4100952148438	1055.517578125	1367.431884765625	-291.8122558593751	1115.80419921875	1376.05810546875	-386.3087768554689	1161.637451171875	1372.88720703125	-398.5828247070314	1109.735717773438	1068.001220703125	-439.1939392089845	1079.883422851563	1058.493041992188	-370.4721069335938	1072.751708984375	1038.45166015625	-411.5085449218751	1189.84326171875	825.658874511719	-413.2041015625001	1136.853271484375	836.5827636718752	-467.6035461425782	1202.746826171875	742.5413818359376	-416.4890747070314	1118.915283203125	762.2288818359376	-471.4082031250001	1054.626098632813	1249.3525390625	-67.48348999023439	1080.828002929688	1366.357055664063	-89.22589111328126	1157.900512695313	1374.4013671875	-8.701945304870607	1204.543334960938	1374.269897460938	-1.839604020118714	1199.806518554688	1061.7744140625	37.2179183959961	1160.946166992188	1053.265014648438	-27.44977760314942	1165.23291015625	1030.077026367188	17.20947456359864	1325.193359375	849.5322875976565	-19.83570861816407	1283.348510742188	839.4862060546877	42.04632186889649	1366.000244140625	768.805847167969	-16.92899131774903	1288.3583984375	765.2886352539064	48.53659057617189	
